<svg xmlns="http://www.w3.org/2000/svg" viewBox="0 0 820 444" font-family="'Space Grotesk','Geist Sans',system-ui,-apple-system,Segoe UI,Roboto,sans-serif">
<rect width="820" height="444" rx="14" fill="#080C14"/>
<rect x="1" y="1" width="818" height="442" rx="13" fill="none" stroke="#111A28" stroke-width="2"/>
<text x="34" y="40" fill="#EDF3F7" font-size="21" font-weight="700">Held-out generalization by vulnerability class</text>
<text x="34" y="62" fill="#7F8A9A" font-size="13" font-family="'JetBrains Mono','Geist Mono',ui-monospace,SFMono-Regular,Menlo,monospace">real code · pinned vuln/patched SHAs · line-precise · calibrate-on-seed-only</text>
<line x1="250" y1="72" x2="250" y2="390" stroke="#111A28" stroke-width="1"/>
<text x="250" y="66" fill="#7F8A9A" font-size="10" text-anchor="middle" font-family="'JetBrains Mono','Geist Mono',ui-monospace,SFMono-Regular,Menlo,monospace">0%</text>
<line x1="365" y1="72" x2="365" y2="390" stroke="#111A28" stroke-width="1"/>
<text x="365" y="66" fill="#7F8A9A" font-size="10" text-anchor="middle" font-family="'JetBrains Mono','Geist Mono',ui-monospace,SFMono-Regular,Menlo,monospace">25%</text>
<line x1="480" y1="72" x2="480" y2="390" stroke="#111A28" stroke-width="1"/>
<text x="480" y="66" fill="#7F8A9A" font-size="10" text-anchor="middle" font-family="'JetBrains Mono','Geist Mono',ui-monospace,SFMono-Regular,Menlo,monospace">50%</text>
<line x1="595" y1="72" x2="595" y2="390" stroke="#111A28" stroke-width="1"/>
<text x="595" y="66" fill="#7F8A9A" font-size="10" text-anchor="middle" font-family="'JetBrains Mono','Geist Mono',ui-monospace,SFMono-Regular,Menlo,monospace">75%</text>
<line x1="710" y1="72" x2="710" y2="390" stroke="#111A28" stroke-width="1"/>
<text x="710" y="66" fill="#7F8A9A" font-size="10" text-anchor="middle" font-family="'JetBrains Mono','Geist Mono',ui-monospace,SFMono-Regular,Menlo,monospace">100%</text>
<line x1="614" y1="72" x2="614" y2="392" stroke="#45D6D0" stroke-width="1.4" stroke-dasharray="4 3" opacity="0.8"/>
<text x="614" y="412" fill="#45D6D0" font-size="11" text-anchor="middle" font-family="'JetBrains Mono','Geist Mono',ui-monospace,SFMono-Regular,Menlo,monospace">mean 79.2%</text>
<text x="234" y="93" fill="#EDF3F7" font-size="12.5" text-anchor="end">Deserialization · 502</text>
<rect x="250" y="82" width="460" height="15" rx="3" fill="#111A28"/>
<rect x="250" y="82" width="460.0" height="15" rx="3" fill="#45D6D0"/>
<text x="720" y="93" fill="#45D6D0" font-size="12" font-family="'JetBrains Mono','Geist Mono',ui-monospace,SFMono-Regular,Menlo,monospace">3/3</text>
<text x="234" y="119" fill="#EDF3F7" font-size="12.5" text-anchor="end">LDAP injection · 90</text>
<rect x="250" y="108" width="460" height="15" rx="3" fill="#111A28"/>
<rect x="250" y="108" width="460.0" height="15" rx="3" fill="#45D6D0"/>
<text x="720" y="119" fill="#45D6D0" font-size="12" font-family="'JetBrains Mono','Geist Mono',ui-monospace,SFMono-Regular,Menlo,monospace">3/3</text>
<text x="234" y="145" fill="#EDF3F7" font-size="12.5" text-anchor="end">Open redirect · 601</text>
<rect x="250" y="134" width="460" height="15" rx="3" fill="#111A28"/>
<rect x="250" y="134" width="460.0" height="15" rx="3" fill="#45D6D0"/>
<text x="720" y="145" fill="#45D6D0" font-size="12" font-family="'JetBrains Mono','Geist Mono',ui-monospace,SFMono-Regular,Menlo,monospace">3/3</text>
<text x="234" y="171" fill="#EDF3F7" font-size="12.5" text-anchor="end">SSTI · 1336</text>
<rect x="250" y="160" width="460" height="15" rx="3" fill="#111A28"/>
<rect x="250" y="160" width="460.0" height="15" rx="3" fill="#45D6D0"/>
<text x="720" y="171" fill="#45D6D0" font-size="12" font-family="'JetBrains Mono','Geist Mono',ui-monospace,SFMono-Regular,Menlo,monospace">4/4</text>
<text x="234" y="197" fill="#EDF3F7" font-size="12.5" text-anchor="end">CRLF · 113</text>
<rect x="250" y="186" width="460" height="15" rx="3" fill="#111A28"/>
<rect x="250" y="186" width="460.0" height="15" rx="3" fill="#45D6D0"/>
<text x="720" y="197" fill="#45D6D0" font-size="12" font-family="'JetBrains Mono','Geist Mono',ui-monospace,SFMono-Regular,Menlo,monospace">3/3</text>
<text x="234" y="223" fill="#EDF3F7" font-size="12.5" text-anchor="end">SSRF · 918</text>
<rect x="250" y="212" width="460" height="15" rx="3" fill="#111A28"/>
<rect x="250" y="212" width="345.0" height="15" rx="3" fill="#B7F34A"/>
<text x="720" y="223" fill="#B7F34A" font-size="12" font-family="'JetBrains Mono','Geist Mono',ui-monospace,SFMono-Regular,Menlo,monospace">3/4</text>
<text x="234" y="249" fill="#EDF3F7" font-size="12.5" text-anchor="end">Command injection · 78</text>
<rect x="250" y="238" width="460" height="15" rx="3" fill="#111A28"/>
<rect x="250" y="238" width="345.0" height="15" rx="3" fill="#B7F34A"/>
<text x="720" y="249" fill="#B7F34A" font-size="12" font-family="'JetBrains Mono','Geist Mono',ui-monospace,SFMono-Regular,Menlo,monospace">3/4</text>
<text x="234" y="275" fill="#EDF3F7" font-size="12.5" text-anchor="end">Prototype pollution · 1321</text>
<rect x="250" y="264" width="460" height="15" rx="3" fill="#111A28"/>
<rect x="250" y="264" width="306.7" height="15" rx="3" fill="#B7F34A"/>
<text x="720" y="275" fill="#B7F34A" font-size="12" font-family="'JetBrains Mono','Geist Mono',ui-monospace,SFMono-Regular,Menlo,monospace">2/3</text>
<text x="234" y="301" fill="#EDF3F7" font-size="12.5" text-anchor="end">Path traversal · 22</text>
<rect x="250" y="290" width="460" height="15" rx="3" fill="#111A28"/>
<rect x="250" y="290" width="306.7" height="15" rx="3" fill="#B7F34A"/>
<text x="720" y="301" fill="#B7F34A" font-size="12" font-family="'JetBrains Mono','Geist Mono',ui-monospace,SFMono-Regular,Menlo,monospace">2/3</text>
<text x="234" y="327" fill="#EDF3F7" font-size="12.5" text-anchor="end">SQL injection · 89</text>
<rect x="250" y="316" width="460" height="15" rx="3" fill="#111A28"/>
<rect x="250" y="316" width="306.7" height="15" rx="3" fill="#B7F34A"/>
<text x="720" y="327" fill="#B7F34A" font-size="12" font-family="'JetBrains Mono','Geist Mono',ui-monospace,SFMono-Regular,Menlo,monospace">2/3</text>
<text x="234" y="353" fill="#EDF3F7" font-size="12.5" text-anchor="end">NoSQL injection · 943</text>
<rect x="250" y="342" width="460" height="15" rx="3" fill="#111A28"/>
<rect x="250" y="342" width="306.7" height="15" rx="3" fill="#B7F34A"/>
<text x="720" y="353" fill="#B7F34A" font-size="12" font-family="'JetBrains Mono','Geist Mono',ui-monospace,SFMono-Regular,Menlo,monospace">2/3</text>
<text x="234" y="379" fill="#EDF3F7" font-size="12.5" text-anchor="end">XXE · 611</text>
<rect x="250" y="368" width="460" height="15" rx="3" fill="#111A28"/>
<rect x="250" y="368" width="153.3" height="15" rx="3" fill="#FF6B62"/>
<text x="720" y="379" fill="#FF6B62" font-size="12" font-family="'JetBrains Mono','Geist Mono',ui-monospace,SFMono-Regular,Menlo,monospace">1/3</text>
</svg>