<svg xmlns="http://www.w3.org/2000/svg" viewBox="0 0 820 360" font-family="'Space Grotesk','Geist Sans',system-ui,-apple-system,Segoe UI,Roboto,sans-serif">
<rect width="820" height="360" rx="14" fill="#080C14"/>
<rect x="1" y="1" width="818" height="358" rx="13" fill="none" stroke="#111A28" stroke-width="2"/>
<text x="34" y="40" fill="#EDF3F7" font-size="21" font-weight="700">The honest curve</text>
<text x="34" y="61" fill="#7F8A9A" font-size="13" font-family="'JetBrains Mono','Geist Mono',ui-monospace,SFMono-Regular,Menlo,monospace">mean held-out generalization across classes · versioned under a regression bar</text>
<line x1="60" y1="306" x2="790" y2="306" stroke="#111A28" stroke-width="1"/>
<text x="52" y="309" fill="#7F8A9A" font-size="10" text-anchor="end" font-family="'JetBrains Mono','Geist Mono',ui-monospace,SFMono-Regular,Menlo,monospace">40%</text>
<line x1="60" y1="267" x2="790" y2="267" stroke="#111A28" stroke-width="1"/>
<text x="52" y="270" fill="#7F8A9A" font-size="10" text-anchor="end" font-family="'JetBrains Mono','Geist Mono',ui-monospace,SFMono-Regular,Menlo,monospace">50%</text>
<line x1="60" y1="227" x2="790" y2="227" stroke="#111A28" stroke-width="1"/>
<text x="52" y="230" fill="#7F8A9A" font-size="10" text-anchor="end" font-family="'JetBrains Mono','Geist Mono',ui-monospace,SFMono-Regular,Menlo,monospace">60%</text>
<line x1="60" y1="188" x2="790" y2="188" stroke="#111A28" stroke-width="1"/>
<text x="52" y="191" fill="#7F8A9A" font-size="10" text-anchor="end" font-family="'JetBrains Mono','Geist Mono',ui-monospace,SFMono-Regular,Menlo,monospace">70%</text>
<line x1="60" y1="149" x2="790" y2="149" stroke="#111A28" stroke-width="1"/>
<text x="52" y="152" fill="#7F8A9A" font-size="10" text-anchor="end" font-family="'JetBrains Mono','Geist Mono',ui-monospace,SFMono-Regular,Menlo,monospace">80%</text>
<line x1="60" y1="109" x2="790" y2="109" stroke="#111A28" stroke-width="1"/>
<text x="52" y="112" fill="#7F8A9A" font-size="10" text-anchor="end" font-family="'JetBrains Mono','Geist Mono',ui-monospace,SFMono-Regular,Menlo,monospace">90%</text>
<line x1="60" y1="70" x2="790" y2="70" stroke="#111A28" stroke-width="1"/>
<text x="52" y="73" fill="#7F8A9A" font-size="10" text-anchor="end" font-family="'JetBrains Mono','Geist Mono',ui-monospace,SFMono-Regular,Menlo,monospace">100%</text>
<polygon points="60,306.0 60.0,201.0 126.4,184.9 192.7,234.0 259.1,217.5 325.5,214.4 391.8,190.4 458.2,191.9 524.5,176.6 590.9,164.8 657.3,155.4 723.6,147.5 790.0,151.8 790,306.0" fill="#B7F34A" opacity="0.08"/>
<polyline points="60.0,201.0 126.4,184.9 192.7,234.0 259.1,217.5 325.5,214.4 391.8,190.4 458.2,191.9 524.5,176.6 590.9,164.8 657.3,155.4 723.6,147.5 790.0,151.8" fill="none" stroke="#B7F34A" stroke-width="2.5"/>
<circle cx="60.0" cy="201.0" r="4.5" fill="#B7F34A" stroke="#080C14" stroke-width="1.5"/>
<text x="60.0" y="330" fill="#7F8A9A" font-size="9.5" text-anchor="middle" font-family="'JetBrains Mono','Geist Mono',ui-monospace,SFMono-Regular,Menlo,monospace">v1</text>
<circle cx="126.4" cy="184.9" r="3" fill="#B7F34A" stroke="#080C14" stroke-width="1.5"/>
<text x="126.4" y="330" fill="#7F8A9A" font-size="9.5" text-anchor="middle" font-family="'JetBrains Mono','Geist Mono',ui-monospace,SFMono-Regular,Menlo,monospace">v2</text>
<circle cx="192.7" cy="234.0" r="4.5" fill="#FF6B62" stroke="#080C14" stroke-width="1.5"/>
<text x="192.7" y="330" fill="#7F8A9A" font-size="9.5" text-anchor="middle" font-family="'JetBrains Mono','Geist Mono',ui-monospace,SFMono-Regular,Menlo,monospace">v3</text>
<circle cx="259.1" cy="217.5" r="3" fill="#B7F34A" stroke="#080C14" stroke-width="1.5"/>
<text x="259.1" y="330" fill="#7F8A9A" font-size="9.5" text-anchor="middle" font-family="'JetBrains Mono','Geist Mono',ui-monospace,SFMono-Regular,Menlo,monospace">v4</text>
<circle cx="325.5" cy="214.4" r="3" fill="#B7F34A" stroke="#080C14" stroke-width="1.5"/>
<text x="325.5" y="330" fill="#7F8A9A" font-size="9.5" text-anchor="middle" font-family="'JetBrains Mono','Geist Mono',ui-monospace,SFMono-Regular,Menlo,monospace">v5</text>
<circle cx="391.8" cy="190.4" r="3" fill="#B7F34A" stroke="#080C14" stroke-width="1.5"/>
<text x="391.8" y="330" fill="#7F8A9A" font-size="9.5" text-anchor="middle" font-family="'JetBrains Mono','Geist Mono',ui-monospace,SFMono-Regular,Menlo,monospace">v6</text>
<circle cx="458.2" cy="191.9" r="3" fill="#B7F34A" stroke="#080C14" stroke-width="1.5"/>
<text x="458.2" y="330" fill="#7F8A9A" font-size="9.5" text-anchor="middle" font-family="'JetBrains Mono','Geist Mono',ui-monospace,SFMono-Regular,Menlo,monospace">v7</text>
<circle cx="524.5" cy="176.6" r="3" fill="#B7F34A" stroke="#080C14" stroke-width="1.5"/>
<text x="524.5" y="330" fill="#7F8A9A" font-size="9.5" text-anchor="middle" font-family="'JetBrains Mono','Geist Mono',ui-monospace,SFMono-Regular,Menlo,monospace">v8</text>
<circle cx="590.9" cy="164.8" r="3" fill="#B7F34A" stroke="#080C14" stroke-width="1.5"/>
<text x="590.9" y="330" fill="#7F8A9A" font-size="9.5" text-anchor="middle" font-family="'JetBrains Mono','Geist Mono',ui-monospace,SFMono-Regular,Menlo,monospace">v9</text>
<circle cx="657.3" cy="155.4" r="3" fill="#B7F34A" stroke="#080C14" stroke-width="1.5"/>
<text x="657.3" y="330" fill="#7F8A9A" font-size="9.5" text-anchor="middle" font-family="'JetBrains Mono','Geist Mono',ui-monospace,SFMono-Regular,Menlo,monospace">v10</text>
<circle cx="723.6" cy="147.5" r="3" fill="#B7F34A" stroke="#080C14" stroke-width="1.5"/>
<text x="723.6" y="330" fill="#7F8A9A" font-size="9.5" text-anchor="middle" font-family="'JetBrains Mono','Geist Mono',ui-monospace,SFMono-Regular,Menlo,monospace">v11</text>
<circle cx="790.0" cy="151.8" r="4.5" fill="#45D6D0" stroke="#080C14" stroke-width="1.5"/>
<text x="790.0" y="330" fill="#7F8A9A" font-size="9.5" text-anchor="middle" font-family="'JetBrains Mono','Geist Mono',ui-monospace,SFMono-Regular,Menlo,monospace">v12</text>
<text x="60.0" y="189" fill="#EDF3F7" font-size="11" text-anchor="middle" font-family="'JetBrains Mono','Geist Mono',ui-monospace,SFMono-Regular,Menlo,monospace">66.7%</text>
<text x="192.7" y="256" fill="#FF6B62" font-size="11" text-anchor="middle" font-family="'JetBrains Mono','Geist Mono',ui-monospace,SFMono-Regular,Menlo,monospace">58.3% · XXE dip (honest)</text>
<text x="790.0" y="140" fill="#45D6D0" font-size="12" text-anchor="end" font-family="'JetBrains Mono','Geist Mono',ui-monospace,SFMono-Regular,Menlo,monospace">79.2%</text>
</svg>